<svg width="1000" height="560" viewBox="0 0 1000 560" fill="none" xmlns="http://www.w3.org/2000/svg">
  <defs>
    <linearGradient id="space" x1="0" y1="0" x2="0" y2="1">
      <stop offset="0%" stop-color="#03040c"/>
      <stop offset="45%" stop-color="#0a1128"/>
      <stop offset="100%" stop-color="#1b1035"/>
    </linearGradient>
    <radialGradient id="nebulaA" cx="0.15" cy="0.2" r="0.6">
      <stop offset="0%" stop-color="#7b2ff7" stop-opacity="0.22"/>
      <stop offset="100%" stop-color="#7b2ff7" stop-opacity="0"/>
    </radialGradient>
    <radialGradient id="nebulaB" cx="0.9" cy="0.85" r="0.55">
      <stop offset="0%" stop-color="#00d4ff" stop-opacity="0.16"/>
      <stop offset="100%" stop-color="#00d4ff" stop-opacity="0"/>
    </radialGradient>
    <linearGradient id="trailGrad" x1="0" y1="0" x2="1" y2="0">
      <stop offset="0%" stop-color="#5fd7ff"/>
      <stop offset="50%" stop-color="#9d6bff"/>
      <stop offset="100%" stop-color="#ff6ec7"/>
    </linearGradient>
    <filter id="softGlow" x="-50%" y="-50%" width="200%" height="200%">
      <feGaussianBlur stdDeviation="6" result="blur"/>
      <feMerge><feMergeNode in="blur"/><feMergeNode in="SourceGraphic"/></feMerge>
    </filter>
  </defs>
  <rect width="1000" height="560" fill="url(#space)"/>
  <rect width="1000" height="560" fill="url(#nebulaA)"/>
  <rect width="1000" height="560" fill="url(#nebulaB)"/>
  <g fill="#ffffff">
    <circle cx="204.0" cy="194.6" r="0.9"><animate attributeName="opacity" values="0.39;1;0.39" dur="3.4s" repeatCount="indefinite"/></circle>
    <circle cx="843.1" cy="257.4" r="1.4"><animate attributeName="opacity" values="0.45;1;0.45" dur="2.3s" repeatCount="indefinite"/></circle>
    <circle cx="392.5" cy="540.8" r="1.2"><animate attributeName="opacity" values="0.13;1;0.13" dur="2.0s" repeatCount="indefinite"/></circle>
    <circle cx="271.2" cy="440.5" r="0.7"><animate attributeName="opacity" values="0.21;1;0.21" dur="2.5s" repeatCount="indefinite"/></circle>
    <circle cx="238.2" cy="291.5" r="1.5"><animate attributeName="opacity" values="0.26;1;0.26" dur="3.8s" repeatCount="indefinite"/></circle>
    <circle cx="851.6" cy="328.9" r="1.4"><animate attributeName="opacity" values="0.4;1;0.4" dur="2.8s" repeatCount="indefinite"/></circle>
    <circle cx="782.3" cy="489.3" r="1.2"><animate attributeName="opacity" values="0.49;1;0.49" dur="3.4s" repeatCount="indefinite"/></circle>
    <circle cx="354.6" cy="166.9" r="1.2"><animate attributeName="opacity" values="0.16;1;0.16" dur="2.3s" repeatCount="indefinite"/></circle>
    <circle cx="740.4" cy="138.2" r="1.0"><animate attributeName="opacity" values="0.39;1;0.39" dur="4.1s" repeatCount="indefinite"/></circle>
    <circle cx="862.6" cy="46.1" r="0.8"><animate attributeName="opacity" values="0.27;1;0.27" dur="2.5s" repeatCount="indefinite"/></circle>
    <circle cx="741.3" cy="444.1" r="0.8"><animate attributeName="opacity" values="0.37;1;0.37" dur="3.3s" repeatCount="indefinite"/></circle>
    <circle cx="83.6" cy="374.9" r="0.9"><animate attributeName="opacity" values="0.23;1;0.23" dur="4.3s" repeatCount="indefinite"/></circle>
    <circle cx="129.4" cy="215.6" r="1.1"><animate attributeName="opacity" values="0.38;1;0.38" dur="4.1s" repeatCount="indefinite"/></circle>
    <circle cx="825.0" cy="337.8" r="1.0"><animate attributeName="opacity" values="0.24;1;0.24" dur="3.9s" repeatCount="indefinite"/></circle>
    <circle cx="176.5" cy="44.0" r="1.4"><animate attributeName="opacity" values="0.17;1;0.17" dur="3.0s" repeatCount="indefinite"/></circle>
    <circle cx="730.6" cy="425.6" r="1.1"><animate attributeName="opacity" values="0.48;1;0.48" dur="3.4s" repeatCount="indefinite"/></circle>
    <circle cx="378.7" cy="272.7" r="0.7"><animate attributeName="opacity" values="0.2;1;0.2" dur="4.6s" repeatCount="indefinite"/></circle>
    <circle cx="60.0" cy="111.8" r="1.5"><animate attributeName="opacity" values="0.41;1;0.41" dur="4.1s" repeatCount="indefinite"/></circle>
    <circle cx="674.5" cy="504.0" r="0.9"><animate attributeName="opacity" values="0.49;1;0.49" dur="2.3s" repeatCount="indefinite"/></circle>
    <circle cx="128.4" cy="29.6" r="1.3"><animate attributeName="opacity" values="0.39;1;0.39" dur="2.7s" repeatCount="indefinite"/></circle>
    <circle cx="749.1" cy="156.1" r="0.7"><animate attributeName="opacity" values="0.34;1;0.34" dur="3.9s" repeatCount="indefinite"/></circle>
    <circle cx="467.9" cy="309.3" r="1.3"><animate attributeName="opacity" values="0.5;1;0.5" dur="3.0s" repeatCount="indefinite"/></circle>
    <circle cx="607.9" cy="62.7" r="1.5"><animate attributeName="opacity" values="0.34;1;0.34" dur="2.5s" repeatCount="indefinite"/></circle>
    <circle cx="716.5" cy="14.0" r="0.8"><animate attributeName="opacity" values="0.37;1;0.37" dur="3.9s" repeatCount="indefinite"/></circle>
    <circle cx="174.5" cy="430.7" r="0.8"><animate attributeName="opacity" values="0.38;1;0.38" dur="4.3s" repeatCount="indefinite"/></circle>
    <circle cx="608.8" cy="358.5" r="1.0"><animate attributeName="opacity" values="0.37;1;0.37" dur="2.6s" repeatCount="indefinite"/></circle>
    <circle cx="958.9" cy="234.4" r="0.6"><animate attributeName="opacity" values="0.43;1;0.43" dur="4.6s" repeatCount="indefinite"/></circle>
    <circle cx="497.2" cy="184.3" r="0.7"><animate attributeName="opacity" values="0.21;1;0.21" dur="2.3s" repeatCount="indefinite"/></circle>
    <circle cx="431.8" cy="500.5" r="1.2"><animate attributeName="opacity" values="0.11;1;0.11" dur="3.3s" repeatCount="indefinite"/></circle>
    <circle cx="63.6" cy="47.9" r="1.0"><animate attributeName="opacity" values="0.47;1;0.47" dur="2.2s" repeatCount="indefinite"/></circle>
    <circle cx="44.3" cy="505.6" r="1.2"><animate attributeName="opacity" values="0.11;1;0.11" dur="3.4s" repeatCount="indefinite"/></circle>
    <circle cx="764.0" cy="253.2" r="1.1"><animate attributeName="opacity" values="0.41;1;0.41" dur="3.5s" repeatCount="indefinite"/></circle>
    <circle cx="729.1" cy="196.3" r="0.9"><animate attributeName="opacity" values="0.25;1;0.25" dur="2.8s" repeatCount="indefinite"/></circle>
    <circle cx="204.6" cy="15.9" r="0.7"><animate attributeName="opacity" values="0.47;1;0.47" dur="3.3s" repeatCount="indefinite"/></circle>
    <circle cx="13.4" cy="128.1" r="0.6"><animate attributeName="opacity" values="0.18;1;0.18" dur="2.5s" repeatCount="indefinite"/></circle>
    <circle cx="63.3" cy="547.8" r="0.8"><animate attributeName="opacity" values="0.25;1;0.25" dur="3.5s" repeatCount="indefinite"/></circle>
    <circle cx="518.5" cy="338.9" r="0.9"><animate attributeName="opacity" values="0.5;1;0.5" dur="2.6s" repeatCount="indefinite"/></circle>
    <circle cx="655.5" cy="291.0" r="0.7"><animate attributeName="opacity" values="0.16;1;0.16" dur="3.0s" repeatCount="indefinite"/></circle>
    <circle cx="473.9" cy="68.2" r="0.7"><animate attributeName="opacity" values="0.35;1;0.35" dur="2.7s" repeatCount="indefinite"/></circle>
    <circle cx="982.2" cy="501.6" r="1.0"><animate attributeName="opacity" values="0.19;1;0.19" dur="2.8s" repeatCount="indefinite"/></circle>
    <circle cx="776.0" cy="443.2" r="0.8"><animate attributeName="opacity" values="0.49;1;0.49" dur="3.2s" repeatCount="indefinite"/></circle>
    <circle cx="308.6" cy="272.9" r="1.0"><animate attributeName="opacity" values="0.4;1;0.4" dur="3.9s" repeatCount="indefinite"/></circle>
    <circle cx="580.0" cy="264.7" r="1.4"><animate attributeName="opacity" values="0.36;1;0.36" dur="3.2s" repeatCount="indefinite"/></circle>
    <circle cx="574.7" cy="441.6" r="1.3"><animate attributeName="opacity" values="0.11;1;0.11" dur="4.2s" repeatCount="indefinite"/></circle>
    <circle cx="372.4" cy="187.0" r="1.0"><animate attributeName="opacity" values="0.3;1;0.3" dur="3.2s" repeatCount="indefinite"/></circle>
    <circle cx="176.3" cy="135.3" r="1.1"><animate attributeName="opacity" values="0.27;1;0.27" dur="3.7s" repeatCount="indefinite"/></circle>
  </g>
  <text x="500" y="42" text-anchor="middle" font-family="'Courier New', monospace" font-size="17" letter-spacing="5" fill="#8fd3ff" opacity="0.95" filter="url(#softGlow)">LAUNCH HISTORY &#183; CONTRIBUTIONS PER YEAR</text>
  <text x="500" y="62" text-anchor="middle" font-family="'Courier New', monospace" font-size="11" letter-spacing="2" fill="#7c8db0">&gt; one shuttle per year &#183; speed, size &amp; contrail scale with payload_</text>
  <text x="18" y="105" font-family="'Courier New', monospace" font-size="13" letter-spacing="1"><tspan fill="#5fd7ff" font-weight="bold">2017</tspan><tspan fill="#7c8db0"> &#9656; </tspan><tspan fill="#c9d1d9">23 contributions</tspan></text>
  <line x1="340" y1="101" x2="985" y2="101" stroke="#3d5a80" stroke-width="1" stroke-dasharray="3 7" opacity="0.35"/>
  <rect x="340" y="100" width="6" height="3" rx="1.5" fill="url(#trailGrad)" opacity="0.45"><animate attributeName="opacity" values="0.3;0.55;0.3" dur="3s" repeatCount="indefinite"/></rect>
  <g><animateTransform attributeName="transform" type="translate" values="310,101; 1030,101" dur="13.9s" begin="-0.0s" repeatCount="indefinite"/><g transform="scale(0.81)"><path d="M-14,0 L -20,0" stroke="#ffb45c" stroke-width="3.4" stroke-linecap="round" opacity="0.85"><animate attributeName="opacity" values="0.9;0.25;0.9" dur="0.4s" repeatCount="indefinite"/><animate attributeName="stroke-width" values="3.4;2.2;3.4" dur="0.4s" repeatCount="indefinite"/></path><path d="M-13,0 L -21,0" stroke="#ff6ec7" stroke-width="1.6" stroke-linecap="round" opacity="0.5"><animate attributeName="opacity" values="0.55;0.15;0.55" dur="0.6s" repeatCount="indefinite"/></path><path d="M-1,-3 L -9,-9 L -4,-2 Z" fill="#9d6bff"/><path d="M-1,3 L -9,9 L -4,2 Z" fill="#9d6bff"/><path d="M-13,0 Q 2,-8 20,0 Q 2,8 -13,0 Z" fill="#dfe7f1"/><path d="M13,-3 L 20,0 L 13,3 Z" fill="#8fd3ff"/><circle cx="5" cy="0" r="2.4" fill="#22384f"/><circle cx="5" cy="0" r="1" fill="#5fd7ff" opacity="0.9"/></g></g>
  <text x="18" y="151" font-family="'Courier New', monospace" font-size="13" letter-spacing="1"><tspan fill="#5fd7ff" font-weight="bold">2018</tspan><tspan fill="#7c8db0"> &#9656; </tspan><tspan fill="#c9d1d9">1 contribution</tspan></text>
  <line x1="340" y1="147" x2="985" y2="147" stroke="#3d5a80" stroke-width="1" stroke-dasharray="3 7" opacity="0.35"/>
  <g><animateTransform attributeName="transform" type="translate" values="310,147; 1030,147" dur="14.0s" begin="-12.3s" repeatCount="indefinite"/><g transform="scale(0.80)"><path d="M-14,0 L -20,0" stroke="#ffb45c" stroke-width="3.4" stroke-linecap="round" opacity="0.85"><animate attributeName="opacity" values="0.9;0.25;0.9" dur="0.4s" repeatCount="indefinite"/><animate attributeName="stroke-width" values="3.4;2.2;3.4" dur="0.4s" repeatCount="indefinite"/></path><path d="M-13,0 L -21,0" stroke="#ff6ec7" stroke-width="1.6" stroke-linecap="round" opacity="0.5"><animate attributeName="opacity" values="0.55;0.15;0.55" dur="0.6s" repeatCount="indefinite"/></path><path d="M-1,-3 L -9,-9 L -4,-2 Z" fill="#9d6bff"/><path d="M-1,3 L -9,9 L -4,2 Z" fill="#9d6bff"/><path d="M-13,0 Q 2,-8 20,0 Q 2,8 -13,0 Z" fill="#dfe7f1"/><path d="M13,-3 L 20,0 L 13,3 Z" fill="#8fd3ff"/><circle cx="5" cy="0" r="2.4" fill="#22384f"/><circle cx="5" cy="0" r="1" fill="#5fd7ff" opacity="0.9"/></g></g>
  <text x="18" y="197" font-family="'Courier New', monospace" font-size="13" letter-spacing="1"><tspan fill="#5fd7ff" font-weight="bold">2019</tspan><tspan fill="#7c8db0"> &#9656; </tspan><tspan fill="#c9d1d9">0 contributions</tspan></text>
  <line x1="340" y1="193" x2="985" y2="193" stroke="#3d5a80" stroke-width="1" stroke-dasharray="3 7" opacity="0.35"/>
  <g><animateTransform attributeName="transform" type="translate" values="310,193; 1030,193" dur="14.0s" begin="-10.6s" repeatCount="indefinite"/><g transform="scale(0.80)"><path d="M-14,0 L -20,0" stroke="#ffb45c" stroke-width="3.4" stroke-linecap="round" opacity="0.85"><animate attributeName="opacity" values="0.9;0.25;0.9" dur="0.4s" repeatCount="indefinite"/><animate attributeName="stroke-width" values="3.4;2.2;3.4" dur="0.4s" repeatCount="indefinite"/></path><path d="M-13,0 L -21,0" stroke="#ff6ec7" stroke-width="1.6" stroke-linecap="round" opacity="0.5"><animate attributeName="opacity" values="0.55;0.15;0.55" dur="0.6s" repeatCount="indefinite"/></path><path d="M-1,-3 L -9,-9 L -4,-2 Z" fill="#9d6bff"/><path d="M-1,3 L -9,9 L -4,2 Z" fill="#9d6bff"/><path d="M-13,0 Q 2,-8 20,0 Q 2,8 -13,0 Z" fill="#dfe7f1"/><path d="M13,-3 L 20,0 L 13,3 Z" fill="#8fd3ff"/><circle cx="5" cy="0" r="2.4" fill="#22384f"/><circle cx="5" cy="0" r="1" fill="#5fd7ff" opacity="0.9"/></g></g>
  <text x="18" y="243" font-family="'Courier New', monospace" font-size="13" letter-spacing="1"><tspan fill="#5fd7ff" font-weight="bold">2020</tspan><tspan fill="#7c8db0"> &#9656; </tspan><tspan fill="#c9d1d9">154 contributions</tspan></text>
  <line x1="340" y1="239" x2="985" y2="239" stroke="#3d5a80" stroke-width="1" stroke-dasharray="3 7" opacity="0.35"/>
  <rect x="340" y="238" width="45" height="3" rx="1.5" fill="url(#trailGrad)" opacity="0.45"><animate attributeName="opacity" values="0.3;0.55;0.3" dur="3s" repeatCount="indefinite"/></rect>
  <g><animateTransform attributeName="transform" type="translate" values="310,239; 1030,239" dur="13.3s" begin="-8.2s" repeatCount="indefinite"/><g transform="scale(0.84)"><path d="M-14,0 L -20,0" stroke="#ffb45c" stroke-width="3.4" stroke-linecap="round" opacity="0.85"><animate attributeName="opacity" values="0.9;0.25;0.9" dur="0.4s" repeatCount="indefinite"/><animate attributeName="stroke-width" values="3.4;2.2;3.4" dur="0.4s" repeatCount="indefinite"/></path><path d="M-13,0 L -23,0" stroke="#ff6ec7" stroke-width="1.6" stroke-linecap="round" opacity="0.5"><animate attributeName="opacity" values="0.55;0.15;0.55" dur="0.6s" repeatCount="indefinite"/></path><path d="M-1,-3 L -9,-9 L -4,-2 Z" fill="#9d6bff"/><path d="M-1,3 L -9,9 L -4,2 Z" fill="#9d6bff"/><path d="M-13,0 Q 2,-8 20,0 Q 2,8 -13,0 Z" fill="#dfe7f1"/><path d="M13,-3 L 20,0 L 13,3 Z" fill="#8fd3ff"/><circle cx="5" cy="0" r="2.4" fill="#22384f"/><circle cx="5" cy="0" r="1" fill="#5fd7ff" opacity="0.9"/></g></g>
  <text x="18" y="289" font-family="'Courier New', monospace" font-size="13" letter-spacing="1"><tspan fill="#5fd7ff" font-weight="bold">2021</tspan><tspan fill="#7c8db0"> &#9656; </tspan><tspan fill="#c9d1d9">541 contributions</tspan></text>
  <line x1="340" y1="285" x2="985" y2="285" stroke="#3d5a80" stroke-width="1" stroke-dasharray="3 7" opacity="0.35"/>
  <rect x="340" y="284" width="159" height="3" rx="1.5" fill="url(#trailGrad)" opacity="0.45"><animate attributeName="opacity" values="0.3;0.55;0.3" dur="3s" repeatCount="indefinite"/></rect>
  <g><animateTransform attributeName="transform" type="translate" values="310,285; 1030,285" dur="11.4s" begin="-4.6s" repeatCount="indefinite"/><g transform="scale(0.94)"><path d="M-14,0 L -20,0" stroke="#ffb45c" stroke-width="3.4" stroke-linecap="round" opacity="0.85"><animate attributeName="opacity" values="0.9;0.25;0.9" dur="0.4s" repeatCount="indefinite"/><animate attributeName="stroke-width" values="3.4;2.2;3.4" dur="0.4s" repeatCount="indefinite"/></path><path d="M-13,0 L -28,0" stroke="#ff6ec7" stroke-width="1.6" stroke-linecap="round" opacity="0.5"><animate attributeName="opacity" values="0.55;0.15;0.55" dur="0.6s" repeatCount="indefinite"/></path><path d="M-1,-3 L -9,-9 L -4,-2 Z" fill="#9d6bff"/><path d="M-1,3 L -9,9 L -4,2 Z" fill="#9d6bff"/><path d="M-13,0 Q 2,-8 20,0 Q 2,8 -13,0 Z" fill="#dfe7f1"/><path d="M13,-3 L 20,0 L 13,3 Z" fill="#8fd3ff"/><circle cx="5" cy="0" r="2.4" fill="#22384f"/><circle cx="5" cy="0" r="1" fill="#5fd7ff" opacity="0.9"/></g></g>
  <text x="18" y="335" font-family="'Courier New', monospace" font-size="13" letter-spacing="1"><tspan fill="#5fd7ff" font-weight="bold">2022</tspan><tspan fill="#7c8db0"> &#9656; </tspan><tspan fill="#c9d1d9">837 contributions</tspan></text>
  <line x1="340" y1="331" x2="985" y2="331" stroke="#3d5a80" stroke-width="1" stroke-dasharray="3 7" opacity="0.35"/>
  <rect x="340" y="330" width="246" height="3" rx="1.5" fill="url(#trailGrad)" opacity="0.45"><animate attributeName="opacity" values="0.3;0.55;0.3" dur="3s" repeatCount="indefinite"/></rect>
  <g><animateTransform attributeName="transform" type="translate" values="310,331; 1030,331" dur="10.1s" begin="-1.6s" repeatCount="indefinite"/><g transform="scale(1.02)"><path d="M-14,0 L -20,0" stroke="#ffb45c" stroke-width="3.4" stroke-linecap="round" opacity="0.85"><animate attributeName="opacity" values="0.9;0.25;0.9" dur="0.4s" repeatCount="indefinite"/><animate attributeName="stroke-width" values="3.4;2.2;3.4" dur="0.4s" repeatCount="indefinite"/></path><path d="M-13,0 L -32,0" stroke="#ff6ec7" stroke-width="1.6" stroke-linecap="round" opacity="0.5"><animate attributeName="opacity" values="0.55;0.15;0.55" dur="0.6s" repeatCount="indefinite"/></path><path d="M-1,-3 L -9,-9 L -4,-2 Z" fill="#9d6bff"/><path d="M-1,3 L -9,9 L -4,2 Z" fill="#9d6bff"/><path d="M-13,0 Q 2,-8 20,0 Q 2,8 -13,0 Z" fill="#dfe7f1"/><path d="M13,-3 L 20,0 L 13,3 Z" fill="#8fd3ff"/><circle cx="5" cy="0" r="2.4" fill="#22384f"/><circle cx="5" cy="0" r="1" fill="#5fd7ff" opacity="0.9"/></g></g>
  <text x="18" y="381" font-family="'Courier New', monospace" font-size="13" letter-spacing="1"><tspan fill="#5fd7ff" font-weight="bold">2023</tspan><tspan fill="#7c8db0"> &#9656; </tspan><tspan fill="#c9d1d9">91 contributions</tspan></text>
  <line x1="340" y1="377" x2="985" y2="377" stroke="#3d5a80" stroke-width="1" stroke-dasharray="3 7" opacity="0.35"/>
  <rect x="340" y="376" width="26" height="3" rx="1.5" fill="url(#trailGrad)" opacity="0.45"><animate attributeName="opacity" values="0.3;0.55;0.3" dur="3s" repeatCount="indefinite"/></rect>
  <g><animateTransform attributeName="transform" type="translate" values="310,377; 1030,377" dur="13.6s" begin="-3.4s" repeatCount="indefinite"/><g transform="scale(0.82)"><path d="M-14,0 L -20,0" stroke="#ffb45c" stroke-width="3.4" stroke-linecap="round" opacity="0.85"><animate attributeName="opacity" values="0.9;0.25;0.9" dur="0.4s" repeatCount="indefinite"/><animate attributeName="stroke-width" values="3.4;2.2;3.4" dur="0.4s" repeatCount="indefinite"/></path><path d="M-13,0 L -22,0" stroke="#ff6ec7" stroke-width="1.6" stroke-linecap="round" opacity="0.5"><animate attributeName="opacity" values="0.55;0.15;0.55" dur="0.6s" repeatCount="indefinite"/></path><path d="M-1,-3 L -9,-9 L -4,-2 Z" fill="#9d6bff"/><path d="M-1,3 L -9,9 L -4,2 Z" fill="#9d6bff"/><path d="M-13,0 Q 2,-8 20,0 Q 2,8 -13,0 Z" fill="#dfe7f1"/><path d="M13,-3 L 20,0 L 13,3 Z" fill="#8fd3ff"/><circle cx="5" cy="0" r="2.4" fill="#22384f"/><circle cx="5" cy="0" r="1" fill="#5fd7ff" opacity="0.9"/></g></g>
  <text x="18" y="427" font-family="'Courier New', monospace" font-size="13" letter-spacing="1"><tspan fill="#5fd7ff" font-weight="bold">2024</tspan><tspan fill="#7c8db0"> &#9656; </tspan><tspan fill="#c9d1d9">900 contributions</tspan></text>
  <line x1="340" y1="423" x2="985" y2="423" stroke="#3d5a80" stroke-width="1" stroke-dasharray="3 7" opacity="0.35"/>
  <rect x="340" y="422" width="265" height="3" rx="1.5" fill="url(#trailGrad)" opacity="0.45"><animate attributeName="opacity" values="0.3;0.55;0.3" dur="3s" repeatCount="indefinite"/></rect>
  <g><animateTransform attributeName="transform" type="translate" values="310,423; 1030,423" dur="9.8s" begin="-7.7s" repeatCount="indefinite"/><g transform="scale(1.03)"><path d="M-14,0 L -20,0" stroke="#ffb45c" stroke-width="3.4" stroke-linecap="round" opacity="0.85"><animate attributeName="opacity" values="0.9;0.25;0.9" dur="0.4s" repeatCount="indefinite"/><animate attributeName="stroke-width" values="3.4;2.2;3.4" dur="0.4s" repeatCount="indefinite"/></path><path d="M-13,0 L -33,0" stroke="#ff6ec7" stroke-width="1.6" stroke-linecap="round" opacity="0.5"><animate attributeName="opacity" values="0.55;0.15;0.55" dur="0.6s" repeatCount="indefinite"/></path><path d="M-1,-3 L -9,-9 L -4,-2 Z" fill="#9d6bff"/><path d="M-1,3 L -9,9 L -4,2 Z" fill="#9d6bff"/><path d="M-13,0 Q 2,-8 20,0 Q 2,8 -13,0 Z" fill="#dfe7f1"/><path d="M13,-3 L 20,0 L 13,3 Z" fill="#8fd3ff"/><circle cx="5" cy="0" r="2.4" fill="#22384f"/><circle cx="5" cy="0" r="1" fill="#5fd7ff" opacity="0.9"/></g></g>
  <text x="18" y="473" font-family="'Courier New', monospace" font-size="13" letter-spacing="1"><tspan fill="#5fd7ff" font-weight="bold">2025</tspan><tspan fill="#7c8db0"> &#9656; </tspan><tspan fill="#c9d1d9">1,472 contributions</tspan></text>
  <line x1="340" y1="469" x2="985" y2="469" stroke="#3d5a80" stroke-width="1" stroke-dasharray="3 7" opacity="0.35"/>
  <rect x="340" y="468" width="433" height="3" rx="1.5" fill="url(#trailGrad)" opacity="0.45"><animate attributeName="opacity" values="0.3;0.55;0.3" dur="3s" repeatCount="indefinite"/></rect>
  <g><animateTransform attributeName="transform" type="translate" values="310,469; 1030,469" dur="7.1s" begin="-0.6s" repeatCount="indefinite"/><g transform="scale(1.18)"><path d="M-14,0 L -20,0" stroke="#ffb45c" stroke-width="3.4" stroke-linecap="round" opacity="0.85"><animate attributeName="opacity" values="0.9;0.25;0.9" dur="0.4s" repeatCount="indefinite"/><animate attributeName="stroke-width" values="3.4;2.2;3.4" dur="0.4s" repeatCount="indefinite"/></path><path d="M-13,0 L -41,0" stroke="#ff6ec7" stroke-width="1.6" stroke-linecap="round" opacity="0.5"><animate attributeName="opacity" values="0.55;0.15;0.55" dur="0.6s" repeatCount="indefinite"/></path><path d="M-1,-3 L -9,-9 L -4,-2 Z" fill="#9d6bff"/><path d="M-1,3 L -9,9 L -4,2 Z" fill="#9d6bff"/><path d="M-13,0 Q 2,-8 20,0 Q 2,8 -13,0 Z" fill="#dfe7f1"/><path d="M13,-3 L 20,0 L 13,3 Z" fill="#8fd3ff"/><circle cx="5" cy="0" r="2.4" fill="#22384f"/><circle cx="5" cy="0" r="1" fill="#5fd7ff" opacity="0.9"/></g></g>
  <text x="18" y="519" font-family="'Courier New', monospace" font-size="13" letter-spacing="1"><tspan fill="#5fd7ff" font-weight="bold">2026</tspan><tspan fill="#7c8db0"> &#9656; </tspan><tspan fill="#c9d1d9">2,120 contributions</tspan></text>
  <line x1="340" y1="515" x2="985" y2="515" stroke="#3d5a80" stroke-width="1" stroke-dasharray="3 7" opacity="0.35"/>
  <rect x="340" y="514" width="625" height="3" rx="1.5" fill="url(#trailGrad)" opacity="0.45"><animate attributeName="opacity" values="0.3;0.55;0.3" dur="3s" repeatCount="indefinite"/></rect>
  <g><animateTransform attributeName="transform" type="translate" values="310,515; 1030,515" dur="4.0s" begin="-0.7s" repeatCount="indefinite"/><g transform="scale(1.35)"><path d="M-14,0 L -20,0" stroke="#ffb45c" stroke-width="3.4" stroke-linecap="round" opacity="0.85"><animate attributeName="opacity" values="0.9;0.25;0.9" dur="0.4s" repeatCount="indefinite"/><animate attributeName="stroke-width" values="3.4;2.2;3.4" dur="0.4s" repeatCount="indefinite"/></path><path d="M-13,0 L -51,0" stroke="#ff6ec7" stroke-width="1.6" stroke-linecap="round" opacity="0.5"><animate attributeName="opacity" values="0.55;0.15;0.55" dur="0.6s" repeatCount="indefinite"/></path><path d="M-1,-3 L -9,-9 L -4,-2 Z" fill="#9d6bff"/><path d="M-1,3 L -9,9 L -4,2 Z" fill="#9d6bff"/><path d="M-13,0 Q 2,-8 20,0 Q 2,8 -13,0 Z" fill="#dfe7f1"/><path d="M13,-3 L 20,0 L 13,3 Z" fill="#8fd3ff"/><circle cx="5" cy="0" r="2.4" fill="#22384f"/><circle cx="5" cy="0" r="1" fill="#5fd7ff" opacity="0.9"/></g></g>
  <rect x="0" y="557" width="1000" height="3" fill="url(#trailGrad)" opacity="0.75"><animate attributeName="opacity" values="0.4;0.95;0.4" dur="4s" repeatCount="indefinite"/></rect>
</svg>
